<svg width="32" height="32" viewBox="0 0 32 32" fill="none" xmlns="http://www.w3.org/2000/svg">
<g opacity="0.78">
<path fill-rule="evenodd" clip-rule="evenodd" d="M16.239 32C22.9983 32 28.4779 26.6275 28.4779 20C28.4779 13.3726 22.9983 8 16.239 8C9.47956 8 4 13.3726 4 20C4 26.6275 9.47956 32 16.239 32ZM12.8426 25.9336L22.1627 20.33C22.2228 20.2937 22.2723 20.2447 22.3064 20.1871C22.3406 20.1296 22.3584 20.0654 22.3584 20C22.3584 19.9348 22.3406 19.8704 22.3064 19.8131C22.2723 19.7555 22.2228 19.7063 22.1627 19.6702L12.8426 14.0664C12.7764 14.0267 12.6995 14.0039 12.6199 14.0005C12.5406 13.9971 12.4616 14.0132 12.3915 14.047C12.3213 14.0808 12.2626 14.1312 12.2219 14.1927C12.181 14.2543 12.1593 14.3246 12.1593 14.3964V25.6038C12.1593 25.6754 12.181 25.7459 12.2219 25.8073C12.2626 25.8688 12.3213 25.9192 12.3915 25.9532C12.4616 25.987 12.5406 26.003 12.6199 25.9995C12.6995 25.9961 12.7764 25.9733 12.8426 25.9336Z" fill="black"/>
<path d="M11.1395 5.99991C12.8294 5.99991 14.1992 4.65686 14.1992 2.99995C14.1992 1.34324 12.8294 0 11.1395 0C9.44958 0 8.07983 1.34324 8.07983 2.99995C8.07983 4.65686 9.44958 5.99991 11.1395 5.99991Z" fill="black"/>
<path d="M24.3981 2.99995C24.3981 4.65686 23.0281 5.99991 21.3382 5.99991C19.6485 5.99991 18.2786 4.65686 18.2786 2.99995C18.2786 1.34324 19.6485 0 21.3382 0C23.0281 0 24.3981 1.34324 24.3981 2.99995Z" fill="black"/>
</g>
</svg>
